# xmcd CD database file
#
# Track frame offsets:
#	150
#	23250
#	58035
#	81069
#	105845
#	122766
#	137160
#	168860
#	193830
#	216633
#	236878
#	259175
#
# Disc length: 3804 seconds
#
# Revision: 1
# Processed by: cddbd v1.5.2PL0 Copyright (c) Steve Scherf et al.
# Submitted via: CDex 1.51
#
DISCID=a30eda0c
DTITLE=Peter Green - Carry My Love
DYEAR=1900
DGENRE=Blues
TTITLE0=Funky Jam
TTITLE1=A Fool No More
TTITLE2=Cryin' Won't Bring You Back
TTITLE3=Last Train To San Antone
TTITLE4=In The Skies
TTITLE5=Apostle
TTITLE6=Little Dreamer
TTITLE7=Bay When The Sun Goes Down
TTITLE8=Slabo Day
TTITLE9=Loser Two Times
TTITLE10=Carry My Love
TTITLE11=Gotta See Her Tonight
EXTD=
EXTT0=
EXTT1=
EXTT2=
EXTT3=
EXTT4=
EXTT5=
EXTT6=
EXTT7=
EXTT8=
EXTT9=
EXTT10=
EXTT11=
PLAYORDER=
